HIERARCHY
ROOT Hips
{
	OFFSET -0.001795 -0.223333 0.028219
	CHANNELS 6 Xposition Yposition Zposition Zrotation Yrotation Xrotation 
	JOINT LeftUpLeg
	{
		OFFSET 0.069520 -0.091406 -0.006815
		CHANNELS 3 Zrotation Yrotation Xrotation
		JOINT LeftLeg
		{
			OFFSET 0.034277 -0.375199 -0.004496
			CHANNELS 3 Zrotation Yrotation Xrotation
			JOINT LeftFoot
			{
				OFFSET -0.013596 -0.397961 -0.043693
				CHANNELS 3 Zrotation Yrotation Xrotation
				JOINT LeftToe
				{
					OFFSET 0.026358 -0.055791 0.119288
					CHANNELS 3 Zrotation Yrotation Xrotation
					End Site
					{
						OFFSET 0.000000 0.000000 0.000000
					}
				}
			}
		}
	}
	JOINT RightUpLeg
	{
		OFFSET -0.067670 -0.090522 -0.004320
		CHANNELS 3 Zrotation Yrotation Xrotation
		JOINT RightLeg
		{
			OFFSET -0.038290 -0.382569 -0.008850
			CHANNELS 3 Zrotation Yrotation Xrotation
			JOINT RightFoot
			{
				OFFSET 0.015774 -0.398415 -0.042312
				CHANNELS 3 Zrotation Yrotation Xrotation
				JOINT RightToe
				{
					OFFSET -0.025372 -0.048144 0.123348
					CHANNELS 3 Zrotation Yrotation Xrotation
					End Site
					{
						OFFSET 0.000000 0.000000 0.000000
					}
				}
			}
		}
	}
	JOINT Spine
	{
		OFFSET -0.002533 0.108963 -0.026696
		CHANNELS 3 Zrotation Yrotation Xrotation
		JOINT Spine1
		{
			OFFSET 0.005487 0.135180 0.001092
			CHANNELS 3 Zrotation Yrotation Xrotation
			JOINT Spine2
			{
				OFFSET 0.001457 0.052922 0.025425
				CHANNELS 3 Zrotation Yrotation Xrotation
				JOINT Neck
				{
					OFFSET -0.002778 0.213870 -0.042857
					CHANNELS 3 Zrotation Yrotation Xrotation
					JOINT Head
					{
						OFFSET 0.005152 0.064970 0.051349
						CHANNELS 3 Zrotation Yrotation Xrotation
						End Site
						{
							OFFSET 0.000000 0.000000 0.000000
						}
					}
				}
				JOINT LeftShoulder
				{
					OFFSET 0.078845 0.121749 -0.034090
					CHANNELS 3 Zrotation Yrotation Xrotation
					JOINT LeftArm
					{
						OFFSET 0.090977 0.030469 -0.008868
						CHANNELS 3 Zrotation Yrotation Xrotation
						JOINT LeftForeArm
						{
							OFFSET 0.259612 -0.012772 -0.027456
							CHANNELS 3 Zrotation Yrotation Xrotation
							JOINT LeftHand
							{
								OFFSET 0.249234 0.008986 -0.001171
								CHANNELS 3 Zrotation Yrotation Xrotation
								End Site
								{
									OFFSET 0.000000 0.000000 0.000000
								}
							}
						}
					}
				}
				JOINT RightShoulder
				{
					OFFSET -0.081759 0.118833 -0.038615
					CHANNELS 3 Zrotation Yrotation Xrotation
					JOINT RightArm
					{
						OFFSET -0.096012 0.032551 -0.009143
						CHANNELS 3 Zrotation Yrotation Xrotation
						JOINT RightForeArm
						{
							OFFSET -0.253742 -0.013329 -0.021401
							CHANNELS 3 Zrotation Yrotation Xrotation
							JOINT RightHand
							{
								OFFSET -0.255298 0.007772 -0.005559
								CHANNELS 3 Zrotation Yrotation Xrotation
								End Site
								{
									OFFSET 0.000000 0.000000 0.000000
								}
							}
						}
					}
				}
			}
		}
	}
}
MOTION
Frames: 18
Frame Time: 0.050000
-0.028964 0.936026 -0.018268 -3.600465 37.164208 9.677579 8.400613 -1.278434 -10.638242 -0.666716 -0.061554 -7.752086 -8.951581 -8.680211 9.270034 0.000000 0.000000 0.000000 -1.365199 0.449609 -6.060208 2.503176 -0.515210 -3.112998 -3.154098 -7.457728 4.076868 0.000000 0.000000 0.000000 -4.038341 -0.015630 -3.617166 -4.461888 1.393906 1.982475 3.034057 2.386051 5.694957 0.115320 3.782018 -21.318752 0.000000 0.000000 0.000000 -24.678350 -10.724937 -3.882805 -46.898596 -7.479679 -0.532831 -11.298552 -39.701317 3.153332 0.000000 0.000000 0.000000 20.094522 11.684485 11.188100 47.040785 17.075000 0.195463 55.143685 67.159627 48.128444 0.000000 0.000000 0.000000 
-0.028404 0.936460 -0.019039 -3.466364 37.289737 9.707299 8.222327 -1.275365 -10.756444 -0.828584 -0.037749 -6.728578 -8.212197 -8.216192 8.333396 0.000000 0.000000 0.000000 -1.489057 0.444944 -6.238939 2.435249 -0.500031 -2.695580 -2.996210 -7.089672 3.954269 0.000000 0.000000 0.000000 -3.859562 -0.008753 -3.512296 -4.001172 1.216631 1.831703 3.192291 2.100197 5.558065 -0.447107 3.956260 -20.419476 0.000000 0.000000 0.000000 -25.335006 -9.937937 -4.453017 -46.224569 -5.966915 -0.997596 -11.748101 -39.350378 3.326536 0.000000 0.000000 0.000000 21.139942 9.263741 9.956453 48.017179 12.003510 -1.803046 63.863678 63.874796 52.575424 0.000000 0.000000 0.000000 
-0.028183 0.937220 -0.020295 -3.456275 36.860446 9.494251 8.130342 -1.236873 -10.397505 -0.875623 -0.025308 -6.409200 -7.671431 -7.499061 8.030764 0.000000 0.000000 0.000000 -1.449621 0.454346 -6.323172 2.349116 -0.479156 -2.293566 -2.774330 -6.617479 3.700197 0.000000 0.000000 0.000000 -3.586260 -0.007622 -3.696769 -3.745610 1.099967 2.023563 3.110947 1.824456 5.685856 -0.503001 3.893235 -19.927655 0.000000 0.000000 0.000000 -25.218389 -9.210161 -4.649389 -46.351375 -5.640202 -1.204910 -9.907384 -37.989246 2.658141 0.000000 0.000000 0.000000 22.610539 7.660012 9.216920 47.521685 8.453482 -3.292488 71.760551 61.064576 56.426000 0.000000 0.000000 0.000000 
-0.028180 0.937562 -0.021870 -3.406401 36.372460 9.118683 7.960885 -1.189040 -10.029397 -1.121395 -0.017149 -6.031442 -6.805059 -6.316919 7.578837 0.000000 0.000000 0.000000 -1.536587 0.452283 -6.379038 2.169410 -0.442065 -1.959158 -2.212045 -5.303243 3.510972 0.000000 0.000000 0.000000 -3.418533 0.005234 -3.461756 -3.358363 0.965922 1.933715 3.283278 1.611347 5.672195 -0.922998 3.977109 -19.046789 0.000000 0.000000 0.000000 -25.433513 -8.475695 -4.935732 -46.111142 -4.760289 -1.555254 -9.307580 -37.382419 2.482113 0.000000 0.000000 0.000000 23.105015 6.266843 8.259179 47.618620 5.722743 -4.268944 79.267429 58.514823 60.269598 0.000000 0.000000 0.000000 
-0.028186 0.937905 -0.023596 -3.355142 35.794801 9.034897 7.732129 -1.145686 -9.740412 -1.198750 -0.006213 -5.771651 -6.075053 -5.394695 7.136239 0.000000 0.000000 0.000000 -1.781951 0.448271 -6.684802 2.126645 -0.428763 -1.620580 -1.928955 -4.645750 3.396895 0.000000 0.000000 0.000000 -3.267507 0.006147 -3.642608 -3.397688 0.977116 2.104157 3.634246 1.197796 5.479975 -1.026438 3.884674 -18.471619 0.000000 0.000000 0.000000 -25.221546 -7.949089 -4.819320 -46.483018 -4.498789 -1.820844 -7.972038 -36.798686 2.108142 0.000000 0.000000 0.000000 23.611351 5.447503 7.540826 47.460757 3.499768 -5.020838 85.293580 56.604271 63.328055 0.000000 0.000000 0.000000 
-0.028175 0.937864 -0.025452 -3.417125 34.874227 8.733333 7.574075 -1.094619 -9.335891 -1.121997 0.009412 -5.631420 -5.298974 -4.146810 6.961703 0.000000 0.000000 0.000000 -2.014478 0.441845 -6.864977 2.024525 -0.403210 -1.431657 -1.554804 -3.725081 3.771308 0.000000 0.000000 0.000000 -3.109213 0.011149 -3.720126 -3.206808 0.929618 2.041826 3.772458 0.835488 5.575713 -1.130816 3.849183 -18.339086 0.000000 0.000000 0.000000 -25.531960 -7.177658 -5.014646 -46.723981 -4.250173 -2.023388 -7.301924 -36.931975 1.978928 0.000000 0.000000 0.000000 24.096171 4.346183 6.639466 47.124520 1.788938 -5.583474 88.927959 54.578496 64.162296 0.000000 0.000000 0.000000 
-0.028354 0.937741 -0.027233 -3.324191 34.273942 8.485295 7.391033 -1.053359 -9.034982 -1.152281 0.021245 -5.284854 -4.678639 -3.313937 6.643334 0.000000 0.000000 0.000000 -2.421962 0.412029 -7.043158 2.395013 -0.463924 -1.107721 -1.372436 -3.317283 3.768942 0.000000 0.000000 0.000000 -2.924876 0.017942 -3.640143 -3.316322 1.021105 1.842674 4.118637 0.605243 5.905418 -1.409635 3.945350 -18.196999 0.000000 0.000000 0.000000 -26.198794 -6.771610 -5.217352 -46.728775 -3.939338 -2.177007 -6.636935 -38.107249 1.864710 0.000000 0.000000 0.000000 24.101961 3.415026 5.850193 47.358846 0.203220 -6.129838 90.579951 53.524888 64.384630 0.000000 0.000000 0.000000 
-0.028774 0.937665 -0.028827 -3.205424 33.573522 8.334730 7.181943 -1.016409 -8.813676 -1.011755 0.032899 -5.073227 -4.154497 -2.309029 6.723090 0.000000 0.000000 0.000000 -2.513602 0.414168 -7.153852 2.313952 -0.444461 -1.061091 -1.254313 -3.034940 4.162896 0.000000 0.000000 0.000000 -2.835037 0.017478 -3.865323 -3.301073 1.026424 1.899658 4.292918 0.291485 5.965506 -1.702286 4.044886 -18.270358 0.000000 0.000000 0.000000 -26.766639 -5.918493 -5.578983 -46.927553 -3.678307 -2.354689 -6.628573 -39.478085 1.985474 0.000000 0.000000 0.000000 23.934180 2.741137 5.140247 47.881855 -1.042566 -6.542909 90.597858 52.578964 63.151480 0.000000 0.000000 0.000000 
-0.029569 0.937694 -0.030111 -3.139187 33.254709 8.012546 7.034360 -0.981858 -8.504470 -0.833526 0.037881 -5.079128 -3.865430 -1.680112 6.856139 0.000000 0.000000 0.000000 -2.528022 0.400737 -6.862959 2.256462 -0.432836 -1.224492 -1.301141 -3.152140 4.403127 0.000000 0.000000 0.000000 -2.778348 0.019303 -3.779314 -3.415029 1.096472 1.827010 4.415350 -0.025143 6.181138 -2.037717 4.201864 -18.438499 0.000000 0.000000 0.000000 -27.293588 -5.541224 -5.739878 -47.185009 -3.707999 -2.421016 -6.472706 -40.642477 2.037507 0.000000 0.000000 0.000000 23.903190 2.338547 4.714976 48.038072 -1.715317 -6.774309 88.361942 52.608555 60.955214 0.000000 0.000000 0.000000 
-0.030737 0.937614 -0.031129 -3.077941 32.874522 7.705198 6.987455 -0.956826 -8.269511 -0.814464 0.042267 -5.023153 -3.621954 -1.234382 6.887074 0.000000 0.000000 0.000000 -2.504098 0.394160 -6.646722 2.279079 -0.436038 -1.500377 -1.200053 -2.925379 4.706736 0.000000 0.000000 0.000000 -2.652484 0.023700 -3.632310 -3.616963 1.204470 1.758512 4.306054 -0.087829 6.180396 -2.243002 4.299688 -18.574135 0.000000 0.000000 0.000000 -27.827409 -5.437708 -5.839094 -47.275366 -3.697426 -2.429792 -6.330883 -41.900952 2.069403 0.000000 0.000000 0.000000 23.753159 2.018404 4.383903 47.734907 -1.942630 -6.783450 85.542435 52.852145 58.569551 0.000000 0.000000 0.000000 
-0.032217 0.937576 -0.031911 -3.063256 32.530446 7.399824 6.962566 -0.929187 -7.932191 -0.643392 0.045695 -5.210333 -3.459672 -0.761545 7.133100 0.000000 0.000000 0.000000 -2.398693 0.384662 -6.197611 2.178034 -0.420283 -1.932830 -1.304998 -3.169984 5.228405 0.000000 0.000000 0.000000 -2.475357 0.027177 -3.616948 -3.881038 1.333169 1.741231 4.340174 -0.117181 6.098799 -2.652289 4.510016 -18.766459 0.000000 0.000000 0.000000 -28.423240 -5.335434 -5.960365 -47.264950 -3.877737 -2.342316 -6.469312 -42.771084 2.197899 0.000000 0.000000 0.000000 23.179099 2.245228 4.349608 47.762019 -1.578891 -6.587074 81.413425 53.298996 55.414517 0.000000 0.000000 0.000000 
-0.033863 0.937489 -0.032533 -2.960802 32.102206 7.184164 6.962673 -0.908941 -7.712544 -0.547163 0.050790 -5.150043 -3.293371 -0.459614 7.173320 0.000000 0.000000 0.000000 -2.506395 0.360819 -5.898282 2.332077 -0.446023 -2.172665 -1.306480 -3.198836 5.452909 0.000000 0.000000 0.000000 -2.258655 0.032772 -3.453007 -4.084996 1.471663 1.394179 3.950618 0.153342 6.235953 -2.488560 4.447719 -18.884092 0.000000 0.000000 0.000000 -28.613549 -5.467639 -6.003416 -47.274159 -4.069413 -2.235950 -7.062378 -43.679211 2.444028 0.000000 0.000000 0.000000 23.041487 2.201185 4.345320 47.301673 -1.018424 -6.344689 78.059563 53.182245 52.565681 0.000000 0.000000 0.000000 
-0.035798 0.937548 -0.032974 -2.818245 32.235997 7.112730 6.905850 -0.909870 -7.806746 -0.548417 0.050446 -5.030185 -3.289958 -0.336241 7.305383 0.000000 0.000000 0.000000 -2.483485 0.352162 -5.764681 2.327366 -0.447708 -2.279013 -1.494529 -3.629879 5.400147 0.000000 0.000000 0.000000 -2.321236 0.031941 -3.277522 -3.948274 1.443823 1.094658 3.545634 0.390980 6.307111 -2.580498 4.547753 -18.965861 0.000000 0.000000 0.000000 -28.723770 -5.643150 -6.121455 -47.321805 -4.016949 -2.190222 -7.744444 -44.499684 2.687044 0.000000 0.000000 0.000000 22.606743 2.233845 4.436599 47.482332 -0.000124 -5.995801 74.833358 53.568102 50.586790 0.000000 0.000000 0.000000 
-0.037900 0.937385 -0.033289 -2.909927 32.452478 6.918769 6.970755 -0.922178 -7.963860 -0.321908 0.050217 -4.862531 -3.500459 -0.631404 7.375690 0.000000 0.000000 0.000000 -2.186050 0.366808 -5.635360 2.243804 -0.435890 -2.241024 -1.640879 -3.966301 5.264357 0.000000 0.000000 0.000000 -2.092283 0.032083 -3.359638 -4.188412 1.567406 0.868434 3.269240 0.523802 6.618145 -2.567289 4.543876 -18.406787 0.000000 0.000000 0.000000 -28.362924 -5.848208 -6.053532 -47.612647 -4.150670 -2.164054 -8.425778 -45.013418 2.915384 0.000000 0.000000 0.000000 22.653972 2.311235 4.619470 47.406825 0.855228 -5.741902 73.380869 53.836768 49.855351 0.000000 0.000000 0.000000 
-0.040137 0.937127 -0.033544 -2.971544 32.887666 6.777874 7.297459 -0.951572 -8.082988 -0.441907 0.047216 -4.634791 -3.783860 -1.156194 7.317453 0.000000 0.000000 0.000000 -2.030080 0.374200 -5.634141 2.277828 -0.442231 -2.007451 -1.615731 -3.907226 4.975069 0.000000 0.000000 0.000000 -2.171629 0.027941 -3.335567 -4.150555 1.551082 0.806744 3.074777 0.699073 6.699704 -2.569934 4.573065 -18.177088 0.000000 0.000000 0.000000 -28.079144 -5.954718 -6.098201 -47.716646 -3.736784 -2.308714 -8.990257 -46.104558 3.126846 0.000000 0.000000 0.000000 22.711574 2.004289 4.570287 47.438399 1.464828 -5.557840 73.679483 54.280762 50.699601 0.000000 0.000000 0.000000 
-0.042339 0.936978 -0.033992 -3.077572 33.548919 6.451857 7.609680 -0.978225 -8.124634 -0.632327 0.042722 -4.288908 -3.985740 -1.585171 7.189407 0.000000 0.000000 0.000000 -1.890760 0.373182 -5.575942 2.414876 -0.468897 -1.754842 -1.786644 -4.298877 4.745723 0.000000 0.000000 0.000000 -2.247732 0.025075 -3.061179 -4.032612 1.517771 0.564649 2.837697 1.010625 7.124549 -2.185279 4.423530 -17.826770 0.000000 0.000000 0.000000 -28.220928 -6.508850 -6.145202 -47.270859 -3.669328 -2.197589 -10.081140 -46.803856 3.532425 0.000000 0.000000 0.000000 23.089015 1.961637 4.875654 47.068112 2.330468 -5.358897 74.299295 55.569154 52.696660 0.000000 0.000000 0.000000 
-0.044305 0.936600 -0.034599 -3.167320 34.079548 6.188055 7.865501 -1.006890 -8.296234 -0.913757 0.039003 -3.862146 -4.221450 -2.117312 7.031564 0.000000 0.000000 0.000000 -1.771352 0.366732 -5.393604 2.468110 -0.481646 -1.620590 -1.627963 -3.930867 4.520736 0.000000 0.000000 0.000000 -2.376687 0.021983 -2.894096 -3.951157 1.452028 0.794136 2.853955 1.394449 6.932006 -2.029661 4.360211 -17.499200 0.000000 0.000000 0.000000 -27.885495 -6.595789 -6.248976 -47.074622 -3.214876 -2.292504 -11.720010 -48.077838 4.215134 0.000000 0.000000 0.000000 22.753304 2.017511 5.025787 47.264949 2.581404 -5.273396 76.722288 55.582866 54.974817 0.000000 0.000000 0.000000 
-0.045966 0.936608 -0.035192 -3.264152 34.627816 6.135639 8.068336 -1.044798 -8.640410 -0.893323 0.034998 -3.559360 -4.527179 -2.528838 7.158510 0.000000 0.000000 0.000000 -1.698877 0.377200 -5.567134 2.712800 -0.530163 -1.302194 -1.964303 -4.718677 4.349056 0.000000 0.000000 0.000000 -2.514193 0.014315 -3.062706 -4.061548 1.446180 1.145953 2.661156 2.084083 6.853077 -1.137204 3.924835 -17.235684 0.000000 0.000000 0.000000 -27.377160 -6.916464 -6.304364 -47.013043 -3.260634 -2.183977 -12.618006 -49.374398 4.527361 0.000000 0.000000 0.000000 22.712014 2.777105 5.808872 47.642174 3.793579 -4.924049 78.410474 57.259761 58.438876 0.000000 0.000000 0.000000 
